<?xml version="1.0" encoding="utf-8"?>
<!-- Generator: Adobe Illustrator 24.0.0, SVG Export Plug-In . SVG Version: 6.00 Build 0)  -->
<svg version="1.1" id="Layer_1" xmlns="http://www.w3.org/2000/svg" xmlns:xlink="http://www.w3.org/1999/xlink" x="0px" y="0px"
	 viewBox="0 0 100 100" style="enable-background:new 0 0 100 100;" xml:space="preserve">
	<g>
		<path class="st0" fill="#FFFFFF" stroke="#000000" stroke-width="0.75" stroke-miterlimit="10" d="M18.56,19.92h11.27v25.52h17.6v8.34H18.56V19.92z"/>
		<path class="st0" fill="#FFFFFF" stroke="#000000" stroke-width="0.75" stroke-miterlimit="10" d="M50.6,42.58l10.73-0.62c0.23,1.62,0.71,2.85,1.42,3.69c1.16,1.37,2.82,2.06,4.98,2.06
			c1.61,0,2.85-0.35,3.72-1.05c0.87-0.7,1.31-1.51,1.31-2.44c0-0.88-0.41-1.66-1.24-2.36s-2.75-1.35-5.77-1.96
			c-4.95-1.03-8.47-2.4-10.58-4.11c-2.13-1.71-3.19-3.89-3.19-6.54c0-1.74,0.54-3.38,1.63-4.93c1.09-1.55,2.72-2.76,4.9-3.65
			s5.17-1.33,8.97-1.33c4.66,0,8.22,0.8,10.66,2.41c2.45,1.61,3.9,4.17,4.37,7.68l-10.63,0.58c-0.28-1.52-0.88-2.63-1.78-3.33
			c-0.9-0.69-2.15-1.04-3.75-1.04c-1.31,0-2.3,0.26-2.96,0.77c-0.66,0.52-1,1.14-1,1.88c0,0.54,0.27,1.02,0.82,1.45
			c0.53,0.45,1.79,0.86,3.78,1.25c4.93,0.99,8.46,1.98,10.59,2.99c2.13,1.01,3.68,2.26,4.65,3.75s1.46,3.16,1.46,5.01
			c0,2.17-0.65,4.17-1.94,6c-1.29,1.83-3.1,3.22-5.43,4.17c-2.32,0.95-5.25,1.42-8.79,1.42c-6.21,0-10.5-1.11-12.89-3.33
			S50.91,45.99,50.6,42.58z"/>
	</g>
	<g>
		<path class="st0" fill="#FFFFFF" stroke="#000000" stroke-width="0.75" stroke-miterlimit="10" d="M18.32,59.16h9.99c1.97,0,3.56,0.21,4.77,0.63c1.21,0.42,2.21,1.03,3.01,1.81c0.79,0.79,1.37,1.7,1.72,2.75
			c0.36,1.04,0.53,2.15,0.53,3.32c0,1.83-0.26,3.25-0.79,4.26c-0.53,1.01-1.26,1.85-2.2,2.54c-0.94,0.68-1.95,1.14-3.03,1.36
			c-1.47,0.31-2.81,0.47-4.01,0.47h-9.99V59.16z M25.04,63.04v9.36h1.65c1.41,0,2.4-0.12,3-0.37c0.59-0.25,1.06-0.67,1.4-1.29
			c0.34-0.61,0.5-1.6,0.5-2.98c0-1.82-0.38-3.06-1.13-3.73s-2-1.01-3.74-1.01H25.04z"/>
		<path class="st0" fill="#FFFFFF" stroke="#000000" stroke-width="0.75" stroke-miterlimit="10" d="M41.86,59.16h18.02v3.66H48.6v2.72h10.47v3.5H48.6v3.38h11.61v3.88H41.86V59.16z"/>
		<path class="st0" fill="#FFFFFF" stroke="#000000" stroke-width="0.75" stroke-miterlimit="10" d="M61.69,59.16h7.03l4.9,12.33l4.83-12.33h6.83L77.2,76.29h-7.29L61.69,59.16z"/>
	</g>
	<rect x="12.72" y="13.18" class="st1" fill="none" stroke="#000000" stroke-width="0.75" stroke-miterlimit="10" width="77.14" height="70.69"/>
</svg>
