<?xml version="1.0" encoding="utf-8"?>
<!-- Generator: Adobe Illustrator 24.0.0, SVG Export Plug-In . SVG Version: 6.00 Build 0)  -->
<svg version="1.1" id="Layer_1" xmlns="http://www.w3.org/2000/svg" xmlns:xlink="http://www.w3.org/1999/xlink" x="0px" y="0px"
	 viewBox="0 0 100 100" style="enable-background:new 0 0 100 100;" xml:space="preserve">
<rect x="12.48" y="21.6" class="st0" fill="none" stroke="#000000" stroke-width="0.25" stroke-miterlimit="10" width="64.31" height="30.21"/>
<rect x="20.03" y="28.18" class="st0" fill="none" stroke="#000000" stroke-width="0.25" stroke-miterlimit="10" width="64.31" height="30.21"/>
<rect x="15.28" y="34.64" class="st1" fill="#FFFFFF" width="66.26" height="10.48"/>
<g>
	<path class="st2" stroke="#000000" stroke-width="0.25" stroke-miterlimit="10" d="M18.19,39.58c0.77,0.05,1.32,0.23,1.66,0.53c0.34,0.3,0.51,0.72,0.51,1.25c0,0.67-0.29,1.26-0.86,1.75
		c-0.57,0.49-1.3,0.73-2.18,0.73l-0.42-0.01c-0.36-0.02-0.66-0.02-0.91-0.02c-0.18,0-0.4,0.01-0.66,0.02l-0.45,0.02v-0.24
		c0.22-0.11,0.35-0.19,0.39-0.24c0.04-0.06,0.06-0.15,0.07-0.28c0.02-0.42,0.04-0.9,0.04-1.44v-3.3c0-0.88-0.03-1.38-0.1-1.5
		c-0.08-0.14-0.27-0.21-0.57-0.21h-0.36v-0.33h0.45l0.49,0.02c0.26,0.01,0.46,0.02,0.61,0.02c0.23,0,0.67-0.01,1.34-0.03l0.78-0.02
		c0.62,0,1.08,0.11,1.38,0.32c0.38,0.27,0.57,0.65,0.57,1.14c0,0.4-0.13,0.76-0.4,1.06C19.31,39.12,18.85,39.38,18.19,39.58z
		 M16.41,39.43c0.18,0.01,0.34,0.02,0.49,0.02c0.71,0,1.22-0.12,1.53-0.37c0.31-0.25,0.46-0.61,0.46-1.08
		c0-0.41-0.13-0.72-0.39-0.93c-0.26-0.22-0.67-0.33-1.23-0.33c-0.25,0-0.52,0.02-0.82,0.07c-0.03,0.43-0.05,1.08-0.05,1.95V39.43z
		 M16.41,43.32c0.33,0.05,0.61,0.07,0.83,0.07c0.63,0,1.12-0.17,1.47-0.5c0.35-0.33,0.52-0.79,0.52-1.36c0-0.38-0.08-0.7-0.23-0.95
		s-0.37-0.43-0.65-0.55s-0.72-0.17-1.33-0.17c-0.18,0-0.39,0.01-0.62,0.02v1.88l0.01,0.67c0.01,0.24,0.02,0.42,0.02,0.55
		C16.43,43.08,16.43,43.19,16.41,43.32z"/>
	<path class="st2" stroke="#000000" stroke-width="0.25" stroke-miterlimit="10" d="M21.16,41.3c0-0.49,0.11-0.93,0.34-1.32c0.23-0.39,0.55-0.7,0.96-0.92c0.41-0.22,0.88-0.33,1.41-0.33
		c0.76,0,1.37,0.22,1.83,0.67s0.69,1.04,0.69,1.78c0,0.88-0.3,1.57-0.9,2.09c-0.53,0.46-1.17,0.69-1.92,0.69
		c-0.72,0-1.3-0.24-1.75-0.71S21.16,42.12,21.16,41.3z M22.17,40.93c0,0.73,0.15,1.35,0.45,1.87c0.3,0.52,0.74,0.78,1.31,0.78
		c0.43,0,0.78-0.16,1.05-0.49c0.27-0.33,0.4-0.82,0.4-1.48c0-0.53-0.08-1-0.24-1.39c-0.16-0.39-0.37-0.67-0.62-0.85
		c-0.26-0.18-0.55-0.27-0.86-0.27c-0.28,0-0.54,0.07-0.77,0.21c-0.23,0.14-0.39,0.33-0.5,0.57C22.24,40.2,22.17,40.55,22.17,40.93z"
		/>
	<path class="st2" stroke="#000000" stroke-width="0.25" stroke-miterlimit="10" d="M27.16,41.3c0-0.49,0.11-0.93,0.34-1.32c0.23-0.39,0.55-0.7,0.96-0.92c0.41-0.22,0.88-0.33,1.41-0.33
		c0.76,0,1.37,0.22,1.83,0.67s0.69,1.04,0.69,1.78c0,0.88-0.3,1.57-0.9,2.09c-0.53,0.46-1.17,0.69-1.92,0.69
		c-0.72,0-1.3-0.24-1.75-0.71S27.16,42.12,27.16,41.3z M28.17,40.93c0,0.73,0.15,1.35,0.45,1.87c0.3,0.52,0.74,0.78,1.31,0.78
		c0.43,0,0.78-0.16,1.05-0.49c0.27-0.33,0.4-0.82,0.4-1.48c0-0.53-0.08-1-0.24-1.39c-0.16-0.39-0.37-0.67-0.62-0.85
		c-0.26-0.18-0.55-0.27-0.86-0.27c-0.28,0-0.54,0.07-0.77,0.21c-0.23,0.14-0.39,0.33-0.5,0.57C28.24,40.2,28.17,40.55,28.17,40.93z"
		/>
	<path class="st2" stroke="#000000" stroke-width="0.25" stroke-miterlimit="10" d="M34.77,39.68v2.08c0,0.54,0.02,0.89,0.05,1.04c0.04,0.15,0.11,0.27,0.22,0.36c0.11,0.08,0.25,0.13,0.42,0.13
		c0.1,0,0.21-0.02,0.3-0.06c0.1-0.04,0.2-0.1,0.29-0.18l0.16,0.18l-0.52,0.6c-0.12,0.04-0.23,0.07-0.33,0.09
		c-0.11,0.02-0.21,0.03-0.31,0.03c-0.27,0-0.49-0.05-0.67-0.14c-0.18-0.09-0.32-0.22-0.4-0.37c-0.08-0.15-0.12-0.38-0.12-0.68
		l0.02-1.02v-2.01c-0.28,0-0.56,0.01-0.85,0.04v-0.23c0.31-0.12,0.59-0.24,0.85-0.37c0-0.5-0.02-1.05-0.04-1.64
		c0.42-0.17,0.72-0.31,0.9-0.42l0.14,0.11c-0.03,0.28-0.06,0.93-0.09,1.95c0.44,0,0.79-0.01,1.07-0.02l0.43-0.02l-0.06,0.55
		l-0.22-0.01l-1.03,0.01H34.77z"/>
	<path class="st2" stroke="#000000" stroke-width="0.25" stroke-miterlimit="10" d="M43.26,38.22l-0.04-0.94c-0.32-0.21-0.65-0.36-1-0.47c-0.35-0.1-0.71-0.15-1.09-0.15
		c-0.97,0-1.74,0.29-2.32,0.87s-0.87,1.35-0.87,2.33c0,0.68,0.15,1.29,0.44,1.82c0.29,0.53,0.71,0.96,1.26,1.27s1.12,0.47,1.72,0.47
		c0.48,0,0.95-0.05,1.42-0.16c0.35-0.08,0.7-0.25,1.06-0.51l0.11,0.11c-0.08,0.16-0.15,0.33-0.21,0.49
		c-0.42,0.2-0.84,0.36-1.26,0.46c-0.42,0.1-0.85,0.16-1.28,0.16c-0.88,0-1.65-0.17-2.32-0.5s-1.18-0.8-1.54-1.39
		c-0.36-0.59-0.54-1.26-0.54-2s0.18-1.41,0.54-2c0.36-0.59,0.87-1.04,1.53-1.37c0.66-0.32,1.47-0.48,2.43-0.48
		c0.5,0,1.09,0.08,1.77,0.24c0.34,0.08,0.61,0.14,0.82,0.17c-0.16,0.38-0.25,0.91-0.28,1.6H43.26z"/>
	<path class="st2" stroke="#000000" stroke-width="0.25" stroke-miterlimit="10" d="M44.92,40.17l0.01-0.35l-0.01-0.37l0.58-0.33c0.26-0.15,0.5-0.25,0.7-0.31c0.2-0.06,0.41-0.08,0.64-0.08
		c0.49,0,0.89,0.11,1.19,0.33s0.48,0.5,0.54,0.84c0.04,0.25,0.07,0.88,0.08,1.89c0.01,0.95,0.03,1.47,0.06,1.57
		c0.04,0.1,0.13,0.15,0.27,0.15h0.42v0.35c-0.41-0.02-0.69-0.04-0.85-0.04c-0.2,0-0.47,0.01-0.81,0.04l0.01-0.47
		c0-0.15,0-0.31-0.01-0.46l-1.11,0.84c-0.1,0.07-0.2,0.13-0.29,0.16c-0.1,0.03-0.23,0.04-0.4,0.04c-0.46,0-0.81-0.11-1.06-0.34
		c-0.24-0.22-0.37-0.52-0.37-0.9c0-0.36,0.09-0.67,0.26-0.93c0.17-0.27,0.42-0.46,0.74-0.59c0.32-0.13,1.06-0.29,2.23-0.5
		c-0.01-0.45-0.11-0.78-0.3-1.01c-0.24-0.28-0.59-0.42-1.04-0.42c-0.17,0-0.33,0.02-0.48,0.06c-0.15,0.04-0.29,0.1-0.42,0.19
		c-0.1,0.25-0.2,0.49-0.28,0.73L44.92,40.17z M47.75,41.01c-1,0.21-1.63,0.41-1.89,0.59c-0.27,0.19-0.4,0.47-0.4,0.86
		c0,0.26,0.08,0.47,0.23,0.63c0.15,0.16,0.35,0.24,0.6,0.24c0.27,0,0.52-0.07,0.77-0.22s0.48-0.37,0.7-0.66l-0.01-1.17L47.75,41.01z
		"/>
	<path class="st2" stroke="#000000" stroke-width="0.25" stroke-miterlimit="10" d="M51.72,39.67l0.72-0.64c0.12-0.1,0.24-0.18,0.37-0.22c0.19-0.06,0.37-0.1,0.55-0.1c0.4,0,0.73,0.07,0.97,0.21
		s0.47,0.4,0.67,0.77l0.69-0.63c0.12-0.11,0.26-0.19,0.44-0.24c0.23-0.08,0.44-0.12,0.66-0.12c0.32,0,0.61,0.07,0.88,0.22
		s0.46,0.34,0.58,0.58c0.13,0.24,0.19,0.56,0.19,0.96l-0.02,2.07c0,0.46,0.03,0.74,0.08,0.82c0.05,0.08,0.19,0.13,0.42,0.14
		l0.39,0.02v0.31l-0.26-0.01c-0.42-0.02-0.7-0.02-0.85-0.02c-0.23,0-0.49,0.01-0.79,0.04c0.05-0.65,0.08-1.42,0.08-2.29
		c0-0.74-0.03-1.22-0.1-1.46s-0.19-0.41-0.37-0.55c-0.18-0.13-0.41-0.2-0.69-0.2c-0.31,0-0.58,0.08-0.8,0.25
		c-0.22,0.17-0.36,0.37-0.41,0.6c-0.04,0.15-0.05,0.77-0.05,1.89c0,0.65,0,1.03,0.02,1.12c0.01,0.09,0.04,0.16,0.09,0.19
		c0.05,0.04,0.2,0.07,0.46,0.1L56,43.54v0.31c-0.63-0.02-1.1-0.04-1.4-0.04c-0.24,0-0.69,0.01-1.37,0.04v-0.31h0.36
		c0.21,0,0.35-0.03,0.42-0.09s0.1-0.2,0.11-0.42c0.03-0.58,0.04-1.18,0.04-1.81c0-0.56-0.04-0.95-0.12-1.16
		c-0.08-0.21-0.21-0.38-0.39-0.51c-0.18-0.12-0.41-0.19-0.66-0.19c-0.28,0-0.53,0.08-0.75,0.23c-0.23,0.15-0.38,0.34-0.46,0.55
		c-0.05,0.15-0.08,0.57-0.08,1.26c0,0.76,0.01,1.32,0.02,1.68c0.01,0.17,0.03,0.27,0.08,0.32c0.05,0.05,0.2,0.08,0.46,0.11
		l0.37,0.04v0.31c-0.45-0.02-0.87-0.04-1.27-0.04c-0.45,0-0.94,0.01-1.47,0.04v-0.31h0.41c0.23,0,0.37-0.06,0.42-0.18
		c0.05-0.12,0.07-0.79,0.07-1.99c0-0.89-0.01-1.41-0.02-1.57c-0.01-0.16-0.04-0.26-0.09-0.3c-0.05-0.04-0.2-0.06-0.46-0.06h-0.33
		v-0.29c0.53-0.07,0.98-0.17,1.36-0.29l0.39-0.15c0.06,0,0.1,0.04,0.1,0.13l-0.01,0.19C51.72,39.21,51.71,39.43,51.72,39.67z"/>
	<path class="st2" stroke="#000000" stroke-width="0.25" stroke-miterlimit="10" d="M61.44,39.79l0.75-0.66c0.19-0.17,0.35-0.27,0.48-0.31c0.21-0.07,0.46-0.1,0.74-0.1
		c0.64,0,1.15,0.19,1.54,0.58c0.39,0.39,0.59,0.89,0.59,1.5c0,0.31-0.04,0.61-0.13,0.91c-0.09,0.3-0.2,0.54-0.33,0.73
		s-0.27,0.35-0.43,0.47c-0.05,0.04-0.27,0.18-0.65,0.42l-0.21,0.15c-0.27,0.19-0.49,0.31-0.66,0.37s-0.36,0.09-0.57,0.09
		c-0.17,0-0.34-0.02-0.53-0.07c-0.19-0.05-0.38-0.12-0.58-0.21v0.75c0,0.77,0.01,1.31,0.03,1.62c0.01,0.14,0.06,0.24,0.13,0.3
		c0.08,0.06,0.25,0.09,0.5,0.09h0.29v0.3c-0.68-0.02-1.17-0.04-1.49-0.04c-0.35,0-0.79,0.01-1.33,0.04v-0.3h0.39
		c0.28,0,0.44-0.06,0.49-0.17c0.05-0.12,0.08-0.74,0.08-1.86v-3.25c0-0.56-0.01-1-0.04-1.31c-0.01-0.15-0.05-0.25-0.1-0.29
		c-0.06-0.05-0.19-0.07-0.39-0.07h-0.42v-0.33c0.5-0.05,0.99-0.15,1.47-0.3l0.33-0.13c0.06,0,0.09,0.05,0.09,0.15l-0.02,0.56
		L61.44,39.79z M61.44,42.71c0.23,0.25,0.46,0.43,0.69,0.54s0.47,0.16,0.74,0.16c0.56,0,1-0.21,1.3-0.63
		c0.3-0.42,0.45-0.92,0.45-1.5c0-0.39-0.07-0.72-0.21-1c-0.14-0.28-0.34-0.49-0.6-0.65s-0.55-0.24-0.85-0.24
		c-0.21,0-0.42,0.04-0.63,0.13c-0.21,0.08-0.38,0.2-0.54,0.35c-0.15,0.15-0.25,0.29-0.29,0.42c-0.03,0.1-0.05,0.35-0.05,0.76V42.71z
		"/>
	<path class="st2" stroke="#000000" stroke-width="0.25" stroke-miterlimit="10" d="M70.3,36.21l0.52-0.29l0.16,0.13c-0.31,0.48-0.52,0.89-0.64,1.24s-0.2,0.73-0.22,1.14
		c-0.3,0.07-0.66,0.18-1.08,0.3l-0.16-0.13c0.24-0.53,0.46-0.97,0.66-1.32C69.75,36.95,70,36.58,70.3,36.21z"/>
	<path class="st2" stroke="#000000" stroke-width="0.25" stroke-miterlimit="10" d="M71.98,43.85v-0.3l1.86-1.91c0.71-0.72,1.18-1.31,1.41-1.76c0.24-0.45,0.36-0.87,0.36-1.25
		c0-0.48-0.14-0.86-0.42-1.14s-0.65-0.43-1.1-0.43c-0.3,0-0.57,0.05-0.82,0.16c-0.18,0.08-0.3,0.17-0.38,0.29
		c-0.08,0.12-0.19,0.44-0.33,0.99h-0.33c0.11-0.69,0.17-1.19,0.18-1.49c0.27-0.28,0.56-0.48,0.87-0.61
		c0.31-0.13,0.66-0.19,1.06-0.19c0.69,0,1.25,0.19,1.66,0.58c0.41,0.39,0.61,0.89,0.61,1.52c0,0.54-0.19,1.08-0.56,1.6
		c-0.37,0.52-0.99,1.18-1.87,1.98l-1.04,1.05h1.96c0.83,0,1.46-0.02,1.87-0.07l0.05,0.05c-0.03,0.2-0.05,0.34-0.05,0.43
		c0,0.07,0.02,0.23,0.05,0.48l-0.05,0.03c-0.71-0.02-1.5-0.04-2.36-0.04C73.72,43.81,72.84,43.82,71.98,43.85z"/>
	<path class="st2" stroke="#000000" stroke-width="0.25" stroke-miterlimit="10" d="M78.17,43.85V43.5l0.42-0.02c0.48-0.01,0.77-0.08,0.87-0.2s0.14-0.61,0.14-1.46l0.04-2.94
		c0-0.99-0.01-1.53-0.03-1.63c-0.01-0.06-0.04-0.09-0.1-0.09c-0.04,0-0.12,0.03-0.25,0.08c-0.61,0.27-1.02,0.46-1.25,0.59
		c-0.16,0.09-0.25,0.14-0.27,0.14c-0.05,0-0.07-0.03-0.08-0.09l-0.04-0.51c1.12-0.33,2.08-0.7,2.88-1.12l0.16,0.07l-0.02,0.6
		l-0.05,3.06l-0.04,2.09c0,0.5,0.02,0.83,0.06,1c0.04,0.16,0.11,0.27,0.21,0.33c0.09,0.06,0.32,0.09,0.68,0.09l0.49,0.02v0.34
		c-0.9-0.02-1.54-0.04-1.91-0.04C79.63,43.81,79,43.82,78.17,43.85z"/>
</g>
</svg>
